<svg width="241" height="56" viewBox="0 0 241 56" fill="none" xmlns="http://www.w3.org/2000/svg">
<mask id="mask0_3405_189" style="mask-type:luminance" maskUnits="userSpaceOnUse" x="0" y="0" width="241" height="56">
<path d="M223.5 0H16.8111C7.52657 0 0 7.52162 0 16.8V39.2C0 48.4784 7.52657 56 16.8111 56H223.5C232.784 56 240.311 48.4784 240.311 39.2V16.8C240.311 7.52162 232.784 0 223.5 0Z" fill="white"/>
</mask>
<g mask="url(#mask0_3405_189)">
<path d="M226.728 0H13.2719C5.94203 0 0 7.52162 0 16.8V39.2C0 48.4784 5.94203 56 13.2719 56H226.728C234.058 56 240 48.4784 240 39.2V16.8C240 7.52162 234.058 0 226.728 0Z" fill="#0030CF"/>
<g opacity="0.37">
<path d="M-20.2298 -69.9044C-52.5887 -15.8146 -77.5487 181.53 -50.1238 213.132C-22.699 244.734 79.0505 135.877 111.409 81.7867C143.768 27.6968 132.623 -14.8973 105.199 -46.4997C77.7739 -78.102 12.129 -123.994 -20.2298 -69.9044ZM-20.2298 -69.9044C-52.5887 -15.8146 -77.5487 181.53 -50.1238 213.132Z" stroke="url(#paint0_linear_3405_189)" stroke-width="4"/>
<path d="M-11.1904 -46.8491C-38.1561 -1.77428 -58.956 162.679 -36.102 189.014C-13.248 215.35 71.5432 124.635 98.509 79.5601C125.475 34.4853 116.187 -1.00981 93.3333 -27.345C70.4794 -53.6803 15.7754 -91.924 -11.1904 -46.8491ZM-11.1904 -46.8491C-38.1561 -1.77428 -58.956 162.679 -36.102 189.014Z" stroke="url(#paint1_linear_3405_189)" stroke-width="4"/>
<path d="M-2.14981 -23.7939C-23.7224 12.2659 -40.3624 143.829 -22.0791 164.896C-3.79589 185.965 64.0371 113.393 85.6096 77.3334C107.182 41.2736 99.7525 12.8775 81.4692 -8.19074C63.186 -29.259 19.4228 -59.8539 -2.14981 -23.7939ZM-2.14981 -23.7939C-23.7224 12.2659 -40.3624 143.829 -22.0791 164.896Z" stroke="url(#paint2_linear_3405_189)" stroke-width="4"/>
<path d="M6.8904 -0.738589C-9.28903 26.3063 -21.7689 124.978 -8.05657 140.78C5.65585 156.58 56.5305 102.152 72.7101 75.1069C88.8895 48.0621 83.3172 26.7651 69.6046 10.9638C55.8923 -4.83732 23.0698 -27.7836 6.8904 -0.738589ZM6.8904 -0.738589C-9.28903 26.3063 -21.7689 124.978 -8.05657 140.78Z" stroke="url(#paint3_linear_3405_189)" stroke-width="4"/>
<path d="M15.9312 22.317C5.1449 40.3469 -3.17508 106.128 5.96654 116.662C15.1081 127.196 49.0247 90.9107 59.811 72.8807C70.5972 54.8508 66.8824 40.6528 57.7407 30.1186C48.5991 19.5845 26.7174 4.28707 15.9312 22.317ZM15.9312 22.317C5.1449 40.3469 -3.17508 106.128 5.96654 116.662Z" stroke="url(#paint4_linear_3405_189)" stroke-width="4"/>
<path d="M24.9705 45.3721C19.5774 54.387 15.4173 87.2776 19.9881 92.5447C24.5589 97.8118 41.5172 79.6689 46.9103 70.6539C52.3035 61.639 50.446 54.5399 45.8752 49.273C41.3044 44.0059 30.3636 36.3571 24.9705 45.3721ZM24.9705 45.3721C19.5774 54.387 15.4173 87.2776 19.9881 92.5447Z" stroke="url(#paint5_linear_3405_189)" stroke-width="4"/>
</g>
<path d="M82.6753 28.4312L86.8521 32.6992C87.7545 33.6136 88.2065 34.4012 88.2065 35.0618C88.2065 35.6968 87.7545 36.4717 86.8521 37.3863C85.948 38.2754 85.1826 38.72 84.5558 38.72C83.929 38.72 83.1635 38.2626 82.2611 37.3482L78.1222 33.1183L73.9454 37.3482C73.0414 38.2626 72.276 38.72 71.6491 38.72C71.0475 38.72 70.2821 38.2754 69.3545 37.3863C68.4504 36.4717 68 35.6968 68 35.0618C68 34.4012 68.4504 33.6136 69.3545 32.6992L73.5312 28.4312L69.3545 24.1634C68.4504 23.2488 68 22.474 68 21.8389C68 21.1783 68.4504 20.3907 69.3545 19.4763C70.2821 18.5617 71.0475 18.1045 71.6491 18.1045C72.276 18.1045 73.0414 18.5617 73.9454 19.4763L78.1222 23.7441L82.2611 19.4763C83.1635 18.5617 83.929 18.1045 84.5558 18.1045C85.1826 18.1045 85.948 18.5617 86.8521 19.4763C87.7545 20.3907 88.2065 21.1783 88.2065 21.8389C88.2065 22.474 87.7545 23.2488 86.8521 24.1634L82.6753 28.4312Z" fill="white"/>
<path d="M102.425 20.5431C102.575 19.1204 103.565 18.4092 105.397 18.4092C106.375 18.4092 107.103 18.4854 107.58 18.6379C108.055 18.7902 108.383 19.057 108.558 19.438C108.758 19.8191 108.871 20.162 108.896 20.4669C108.947 20.7463 108.972 21.1782 108.972 21.7625V35.0997C108.972 35.6841 108.947 36.1285 108.896 36.4334C108.871 36.7129 108.77 37.0431 108.596 37.4242C108.244 38.0847 107.378 38.4149 105.999 38.4149C104.644 38.4149 103.729 38.2498 103.252 37.9196C102.801 37.5639 102.537 37.0559 102.461 36.3953C101.534 37.7418 99.9791 38.4149 97.7962 38.4149C95.6386 38.4149 93.6321 37.4116 91.7752 35.4045C89.9184 33.3976 88.9907 31.0731 88.9907 28.431C88.9907 25.7637 89.9184 23.4392 91.7752 21.4577C93.6573 19.4508 95.7142 18.4473 97.9459 18.4473C98.7995 18.4473 99.5775 18.5996 100.28 18.9045C100.982 19.2094 101.471 19.5015 101.748 19.781C102.023 20.035 102.249 20.2891 102.425 20.5431ZM95.5756 28.4693C95.5756 29.3075 95.9016 30.0696 96.5536 30.7555C97.2056 31.4161 97.9962 31.7463 98.9255 31.7463C99.8531 31.7463 100.619 31.4033 101.22 30.7174C101.847 30.0315 102.16 29.2822 102.16 28.4693C102.16 27.6309 101.86 26.856 101.258 26.1448C100.682 25.4334 99.8909 25.0778 98.8877 25.0778C97.908 25.0778 97.1064 25.4334 96.4796 26.1448C95.8764 26.856 95.5756 27.6309 95.5756 28.4693Z" fill="white"/>
<path d="M118.444 21.0769C119.622 19.2732 121.039 18.3713 122.696 18.3713C125.254 18.3713 127.161 19.4764 128.415 21.6866C128.69 21.3056 129.016 20.9118 129.393 20.5052C129.794 20.0735 130.421 19.6161 131.275 19.1334C132.128 18.6254 133.006 18.3713 133.908 18.3713C135.916 18.3713 137.597 19.1589 138.951 20.7339C140.305 22.2836 140.983 24.8621 140.983 28.4695V35.1382C140.983 35.7224 140.958 36.167 140.907 36.4719C140.882 36.7513 140.77 37.0815 140.568 37.4627C140.242 38.1486 139.277 38.4915 137.672 38.4915C136.091 38.4915 135.125 38.1358 134.774 37.4244C134.599 37.0434 134.486 36.7132 134.436 36.4338C134.41 36.1289 134.398 35.6843 134.398 35.1001V28.4314C134.398 26.2212 133.62 25.1162 132.065 25.1162C131.187 25.1162 130.585 25.4083 130.259 25.9927C129.958 26.5769 129.807 27.4026 129.807 28.4695V35.1382C129.807 35.7479 129.782 36.1924 129.731 36.4719C129.708 36.7513 129.594 37.0815 129.393 37.4627C129.041 38.1486 128.063 38.4915 126.459 38.4915C124.877 38.4915 123.912 38.1358 123.561 37.4244C123.384 37.0434 123.272 36.7132 123.222 36.4338C123.197 36.1289 123.184 35.6843 123.184 35.1001V28.4314C123.184 26.2212 122.406 25.1162 120.852 25.1162C119.346 25.1162 118.593 26.2212 118.593 28.4314V35.1763C118.593 35.7605 118.568 36.2051 118.518 36.51C118.493 36.7893 118.381 37.1197 118.179 37.5008C117.803 38.1613 116.825 38.4915 115.245 38.4915C113.664 38.4915 112.698 38.1486 112.347 37.4627C112.172 37.0815 112.059 36.7513 112.009 36.4719C111.983 36.1924 111.971 35.7479 111.971 35.1382V21.7247C111.971 21.1405 111.983 20.7086 112.009 20.4291C112.059 20.1242 112.185 19.794 112.385 19.4383C112.761 18.7524 113.651 18.4094 115.056 18.4094C116.461 18.4094 117.377 18.6381 117.803 19.0953C118.23 19.5527 118.444 20.2131 118.444 21.0769Z" fill="white"/>
<path d="M156.847 20.5431C156.997 19.1204 157.989 18.4092 159.819 18.4092C160.799 18.4092 161.527 18.4854 162.002 18.6379C162.479 18.7902 162.805 19.057 162.98 19.438C163.182 19.8191 163.294 20.162 163.319 20.4669C163.369 20.7463 163.394 21.1782 163.394 21.7625V35.0997C163.394 35.6841 163.369 36.1285 163.319 36.4334C163.294 36.7129 163.194 37.0431 163.018 37.4242C162.667 38.0847 161.802 38.4149 160.422 38.4149C159.068 38.4149 158.151 38.2498 157.674 37.9196C157.224 37.5639 156.961 37.0559 156.885 36.3953C155.956 37.7418 154.401 38.4149 152.219 38.4149C150.061 38.4149 148.054 37.4116 146.198 35.4045C144.342 33.3976 143.413 31.0731 143.413 28.431C143.413 25.7637 144.342 23.4392 146.198 21.4577C148.08 19.4508 150.137 18.4473 152.37 18.4473C153.222 18.4473 154 18.5996 154.702 18.9045C155.405 19.2094 155.895 19.5015 156.17 19.781C156.446 20.035 156.673 20.2891 156.847 20.5431ZM149.998 28.4693C149.998 29.3075 150.324 30.0696 150.978 30.7555C151.63 31.4161 152.42 31.7463 153.348 31.7463C154.275 31.7463 155.041 31.4033 155.643 30.7174C156.269 30.0315 156.584 29.2822 156.584 28.4693C156.584 27.6309 156.282 26.856 155.68 26.1448C155.104 25.4334 154.313 25.0778 153.31 25.0778C152.332 25.0778 151.529 25.4334 150.902 26.1448C150.3 26.856 149.998 27.6309 149.998 28.4693Z" fill="white"/>
<path d="M177.419 18.4092C179.928 18.4092 182.01 19.3872 183.665 21.3434C185.345 23.2741 186.186 25.6367 186.186 28.431V35.1379C186.186 35.7221 186.161 36.1666 186.111 36.4715C186.086 36.751 185.986 37.0686 185.81 37.4242C185.459 38.1101 184.481 38.453 182.874 38.453C181.093 38.453 180.066 37.9831 179.789 37.0431C179.638 36.6112 179.564 35.9634 179.564 35.0997V28.3929C179.564 27.3515 179.263 26.5386 178.66 25.9542C178.083 25.3699 177.293 25.0778 176.29 25.0778C175.311 25.0778 174.508 25.3827 173.881 25.9923C173.28 26.602 172.979 27.4023 172.979 28.3929V35.1379C172.979 35.7221 172.954 36.1666 172.903 36.4715C172.878 36.751 172.765 37.0686 172.565 37.4242C172.239 38.1101 171.272 38.453 169.667 38.453C168.087 38.453 167.122 38.1101 166.769 37.4242C166.594 37.0431 166.481 36.7129 166.43 36.4334C166.405 36.1285 166.393 35.6841 166.393 35.0997V21.61C166.393 21.0511 166.405 20.632 166.43 20.3526C166.481 20.0478 166.607 19.7174 166.807 19.3619C167.158 18.7266 168.125 18.4092 169.705 18.4092C171.236 18.4092 172.176 18.7013 172.527 19.2855C172.777 19.7174 172.903 20.2382 172.903 20.8479C173.004 20.6701 173.229 20.4161 173.581 20.0859C173.932 19.7557 174.27 19.4889 174.596 19.2855C175.45 18.7013 176.39 18.4092 177.419 18.4092Z" fill="white"/>
<path fill-rule="evenodd" clip-rule="evenodd" d="M215.285 17.9353C216.755 19.2721 216.864 21.5485 215.528 23.02L203.355 36.4364C202.684 37.1765 201.736 37.6035 200.738 37.6153C199.739 37.6269 198.78 37.2223 198.092 36.4983L191.556 29.6266C190.187 28.187 190.242 25.9086 191.68 24.5376C193.117 23.1665 195.392 23.2221 196.763 24.6616L200.632 28.7314L210.208 18.179C211.542 16.7077 213.816 16.5986 215.285 17.9353Z" fill="white"/>
<path d="M7.39697 20.832C7.39697 13.4094 13.4182 7.39209 20.8458 7.39209H35.1912C42.6189 7.39209 48.6401 13.4094 48.6401 20.832V35.168C48.6401 42.5908 42.6189 48.608 35.1912 48.608H20.8458C13.4182 48.608 7.39697 42.5908 7.39697 35.168V20.832Z" fill="black"/>
<path fill-rule="evenodd" clip-rule="evenodd" d="M20.8455 5.6001H35.191C43.609 5.6001 50.433 12.4197 50.433 20.8321V35.1681C50.433 43.5806 43.609 50.4001 35.191 50.4001H20.8455C12.4276 50.4001 5.60352 43.5806 5.60352 35.1681V20.8321C5.60352 12.4197 12.4276 5.6001 20.8455 5.6001ZM20.8455 7.3921C13.418 7.3921 7.3967 13.4094 7.3967 20.8321V35.1681C7.3967 42.5908 13.418 48.6081 20.8455 48.6081H35.191C42.6185 48.6081 48.6398 42.5908 48.6398 35.1681V20.8321C48.6398 13.4094 42.6185 7.3921 35.191 7.3921H20.8455Z" fill="black"/>
<path d="M24.6193 28.1752L26.7141 30.3326C27.167 30.795 27.3934 31.193 27.3934 31.5269C27.3934 31.8481 27.167 32.2396 26.7141 32.7021C26.261 33.1515 25.8773 33.3762 25.5628 33.3762C25.2483 33.3762 24.8646 33.145 24.4117 32.6827L22.3358 30.5445L20.241 32.6827C19.7881 33.145 19.4044 33.3762 19.0899 33.3762C18.788 33.3762 18.4041 33.1515 17.9387 32.7021C17.4858 32.2396 17.2593 31.8481 17.2593 31.5269C17.2593 31.193 17.4858 30.795 17.9387 30.3326L20.0334 28.1752L17.9387 26.0178C17.4858 25.5553 17.2593 25.1636 17.2593 24.8426C17.2593 24.5087 17.4858 24.1107 17.9387 23.6483C18.4041 23.186 18.788 22.9548 19.0899 22.9548C19.4044 22.9548 19.7881 23.186 20.241 23.6483L22.3358 25.8058L24.4117 23.6483C24.8646 23.186 25.2483 22.9548 25.5628 22.9548C25.8773 22.9548 26.261 23.186 26.7141 23.6483C27.167 24.1107 27.3934 24.5087 27.3934 24.8426C27.3934 25.1636 27.167 25.5553 26.7141 26.0178L24.6193 28.1752Z" fill="white"/>
<path fill-rule="evenodd" clip-rule="evenodd" d="M40.2035 23.103C40.9415 23.7874 40.9964 24.9531 40.3256 25.7064L34.2114 32.5759C33.8744 32.9548 33.3978 33.1734 32.8964 33.1795C32.3949 33.1855 31.9135 32.9783 31.5676 32.6076L28.2847 29.0891C27.597 28.352 27.6249 27.1854 28.347 26.4834C29.0691 25.7814 30.2119 25.8099 30.8997 26.547L32.8439 28.6307L37.6531 23.2277C38.3234 22.4744 39.4655 22.4185 40.2035 23.103Z" fill="white"/>
<path fill-rule="evenodd" clip-rule="evenodd" d="M20.3972 11.8721C15.5129 11.8721 11.8796 15.5029 11.8796 20.3841C11.8796 20.8789 11.4782 21.2801 10.983 21.2801C10.4878 21.2801 10.0864 20.8789 10.0864 20.3841C10.0864 14.5132 14.5224 10.0801 20.3972 10.0801C20.8924 10.0801 21.2938 10.4812 21.2938 10.9761C21.2938 11.4709 20.8924 11.8721 20.3972 11.8721Z" fill="#515464"/>
<path fill-rule="evenodd" clip-rule="evenodd" d="M20.3972 44.128C15.5129 44.128 11.8796 40.4972 11.8796 35.616C11.8796 35.1212 11.4782 34.72 10.983 34.72C10.4878 34.72 10.0864 35.1212 10.0864 35.616C10.0864 41.4869 14.5224 45.92 20.3972 45.92C20.8924 45.92 21.2938 45.5189 21.2938 45.024C21.2938 44.5292 20.8924 44.128 20.3972 44.128Z" fill="#515464"/>
<path fill-rule="evenodd" clip-rule="evenodd" d="M35.6393 11.8721C40.5237 11.8721 44.1569 15.5029 44.1569 20.3841C44.1569 20.8789 44.5584 21.2801 45.0535 21.2801C45.5487 21.2801 45.95 20.8789 45.95 20.3841C45.95 14.5132 41.514 10.0801 35.6393 10.0801C35.1442 10.0801 34.7427 10.4812 34.7427 10.9761C34.7427 11.4709 35.1442 11.8721 35.6393 11.8721Z" fill="#515464"/>
<path fill-rule="evenodd" clip-rule="evenodd" d="M35.6393 44.128C40.5237 44.128 44.1569 40.4972 44.1569 35.616C44.1569 35.1212 44.5584 34.72 45.0535 34.72C45.5487 34.72 45.95 35.1212 45.95 35.616C45.95 41.4869 41.514 45.92 35.6393 45.92C35.1442 45.92 34.7427 45.5189 34.7427 45.024C34.7427 44.5292 35.1442 44.128 35.6393 44.128Z" fill="#515464"/>
</g>
<defs>
<linearGradient id="paint0_linear_3405_189" x1="58.8174" y1="-89.5473" x2="8.54035" y2="226.297" gradientUnits="userSpaceOnUse">
<stop offset="0.45" stop-color="#2247FF"/>
<stop offset="1" stop-color="#0D1C65"/>
</linearGradient>
<linearGradient id="paint1_linear_3405_189" x1="54.6825" y1="-63.2181" x2="12.7848" y2="199.985" gradientUnits="userSpaceOnUse">
<stop offset="0.45" stop-color="#2247FF"/>
<stop offset="1" stop-color="#0D1C65"/>
</linearGradient>
<linearGradient id="paint2_linear_3405_189" x1="50.5485" y1="-36.8891" x2="17.0303" y2="173.673" gradientUnits="userSpaceOnUse">
<stop offset="0.45" stop-color="#2247FF"/>
<stop offset="1" stop-color="#0D1C65"/>
</linearGradient>
<linearGradient id="paint3_linear_3405_189" x1="46.4141" y1="-10.56" x2="21.2756" y2="147.362" gradientUnits="userSpaceOnUse">
<stop offset="0.45" stop-color="#2247FF"/>
<stop offset="1" stop-color="#0D1C65"/>
</linearGradient>
<linearGradient id="paint4_linear_3405_189" x1="42.2803" y1="15.7695" x2="25.5213" y2="121.051" gradientUnits="userSpaceOnUse">
<stop offset="0.45" stop-color="#2247FF"/>
<stop offset="1" stop-color="#0D1C65"/>
</linearGradient>
<linearGradient id="paint5_linear_3405_189" x1="38.1451" y1="42.0982" x2="29.7656" y2="94.739" gradientUnits="userSpaceOnUse">
<stop offset="0.45" stop-color="#2247FF"/>
<stop offset="1" stop-color="#0D1C65"/>
</linearGradient>
</defs>
</svg>
