<svg width="304" height="56" viewBox="0 0 304 56" fill="none" xmlns="http://www.w3.org/2000/svg">
<g clip-path="url(#clip0_3405_144)">
<mask id="mask0_3405_144" style="mask-type:luminance" maskUnits="userSpaceOnUse" x="0" y="0" width="304" height="56">
<path d="M287.189 0H16.8111C7.52657 0 0 7.52162 0 16.8V39.2C0 48.4784 7.52657 56 16.8111 56H287.189C296.473 56 304 48.4784 304 39.2V16.8C304 7.52162 296.473 0 287.189 0Z" fill="white"/>
</mask>
<g mask="url(#mask0_3405_144)">
<path d="M287.189 0H16.8111C7.52657 0 0 7.52162 0 16.8V39.2C0 48.4784 7.52657 56 16.8111 56H287.189C296.473 56 304 48.4784 304 39.2V16.8C304 7.52162 296.473 0 287.189 0Z" fill="#0030CF"/>
<mask id="mask1_3405_144" style="mask-type:alpha" maskUnits="userSpaceOnUse" x="0" y="0" width="304" height="56">
<path d="M291.507 0H12.4932C5.59338 0 0 6.26801 0 14V42C0 49.7319 5.59338 56 12.4932 56H291.507C298.406 56 304 49.7319 304 42V14C304 6.26801 298.406 0 291.507 0Z" fill="#1F3DDB"/>
</mask>
<g mask="url(#mask1_3405_144)">
<g opacity="0.37">
<path d="M-20.2298 -69.9046C-52.5887 -15.8147 -77.5487 181.53 -50.1238 213.132C-22.699 244.734 79.0505 135.876 111.409 81.7866C143.768 27.6967 132.623 -14.8974 105.199 -46.4998C77.7739 -78.1021 12.129 -123.994 -20.2298 -69.9046ZM-20.2298 -69.9046C-52.5887 -15.8147 -77.5487 181.53 -50.1238 213.132Z" stroke="url(#paint0_linear_3405_144)" stroke-width="4"/>
<path d="M-11.1904 -46.8494C-38.1561 -1.77453 -58.956 162.679 -36.102 189.014C-13.248 215.349 71.5432 124.635 98.509 79.5598C125.475 34.485 116.187 -1.01005 93.3333 -27.3453C70.4794 -53.6805 15.7754 -91.9242 -11.1904 -46.8494ZM-11.1904 -46.8494C-38.1561 -1.77453 -58.956 162.679 -36.102 189.014Z" stroke="url(#paint1_linear_3405_144)" stroke-width="4"/>
<path d="M-2.14981 -23.7941C-23.7224 12.2658 -40.3624 143.829 -22.0791 164.896C-3.79589 185.965 64.0371 113.393 85.6096 77.3333C107.182 41.2735 99.7525 12.8773 81.4692 -8.19086C63.186 -29.2591 19.4228 -59.854 -2.14981 -23.7941ZM-2.14981 -23.7941C-23.7224 12.2658 -40.3624 143.829 -22.0791 164.896Z" stroke="url(#paint2_linear_3405_144)" stroke-width="4"/>
<path d="M6.8904 -0.738589C-9.28903 26.3063 -21.7689 124.978 -8.05657 140.78C5.65585 156.58 56.5305 102.152 72.7101 75.1069C88.8895 48.0621 83.3172 26.7651 69.6046 10.9638C55.8923 -4.83732 23.0698 -27.7836 6.8904 -0.738589ZM6.8904 -0.738589C-9.28903 26.3063 -21.7689 124.978 -8.05657 140.78Z" stroke="url(#paint3_linear_3405_144)" stroke-width="4"/>
<path d="M15.9312 22.3168C5.1449 40.3467 -3.17508 106.128 5.96654 116.662C15.1081 127.196 49.0247 90.9105 59.811 72.8804C70.5972 54.8505 66.8824 40.6526 57.7407 30.1184C48.5991 19.5842 26.7174 4.28683 15.9312 22.3168ZM15.9312 22.3168C5.1449 40.3467 -3.17508 106.128 5.96654 116.662Z" stroke="url(#paint4_linear_3405_144)" stroke-width="4"/>
<path d="M24.9705 45.3721C19.5774 54.387 15.4173 87.2776 19.9881 92.5447C24.5589 97.8118 41.5172 79.6689 46.9103 70.6539C52.3035 61.639 50.446 54.5399 45.8752 49.273C41.3044 44.0059 30.3636 36.3571 24.9705 45.3721ZM24.9705 45.3721C19.5774 54.387 15.4173 87.2776 19.9881 92.5447Z" stroke="url(#paint5_linear_3405_144)" stroke-width="4"/>
</g>
</g>
<path d="M60.2397 31.7407C61.2724 32.7991 62.8047 33.5215 64.9366 33.5215C67.9346 33.5215 69.3836 31.9759 69.3836 29.9263C69.3836 27.4399 67.0519 26.8855 65.2197 26.4655C63.9372 26.1631 63.0046 25.9279 63.0046 25.1719C63.0046 24.4999 63.5709 24.0295 64.6368 24.0295C65.7194 24.0295 66.9186 24.4159 67.818 25.2559L69.1338 23.5087C68.0345 22.4839 66.5688 21.9463 64.8034 21.9463C62.1884 21.9463 60.5896 23.4583 60.5896 25.3231C60.5896 27.8263 62.9212 28.3303 64.7367 28.7503C66.0192 29.0527 66.9852 29.3383 66.9852 30.1783C66.9852 30.8167 66.3522 31.4383 65.0532 31.4383C63.5208 31.4383 62.305 30.7495 61.5222 29.9263L60.2397 31.7407Z" fill="white"/>
<path d="M71.9752 24.164C72.6748 24.164 73.2411 23.5928 73.2411 22.8872C73.2411 22.1816 72.6748 21.6104 71.9752 21.6104C71.2924 21.6104 70.7095 22.1816 70.7095 22.8872C70.7095 23.5928 71.2924 24.164 71.9752 24.164ZM70.9259 33.32H73.0412V25.2056H70.9259V33.32Z" fill="white"/>
<path d="M74.9719 35.4031C75.9878 36.2935 77.0538 36.6127 78.4362 36.6127C80.4184 36.6127 82.7834 35.8567 82.7834 32.7655V25.2055H80.6515V26.2471C80.002 25.4239 79.1357 25.0039 78.1698 25.0039C76.1377 25.0039 74.6221 26.4823 74.6221 29.1367C74.6221 31.8415 76.1544 33.2695 78.1698 33.2695C79.1524 33.2695 80.0187 32.7991 80.6515 31.9927V32.8159C80.6515 34.4119 79.4522 34.8655 78.4362 34.8655C77.4203 34.8655 76.5708 34.5799 75.9213 33.8575L74.9719 35.4031ZM80.6515 30.4471C80.3018 30.9679 79.5355 31.3711 78.8359 31.3711C77.6367 31.3711 76.804 30.5311 76.804 29.1367C76.804 27.7423 77.6367 26.9023 78.8359 26.9023C79.5355 26.9023 80.3018 27.2887 80.6515 27.8263V30.4471Z" fill="white"/>
<path d="M90.3109 33.3199H92.4262V27.5911C92.4262 26.0119 91.5768 25.0039 89.8113 25.0039C88.4956 25.0039 87.5128 25.6423 86.9966 26.2639V25.2055H84.8813V33.3199H86.9966V27.8599C87.3463 27.3727 87.9959 26.9023 88.8286 26.9023C89.728 26.9023 90.3109 27.2887 90.3109 28.4143V33.3199Z" fill="white"/>
<path d="M99.8372 24.164C100.537 24.164 101.103 23.5928 101.103 22.8872C101.103 22.1816 100.537 21.6104 99.8372 21.6104C99.1542 21.6104 98.5713 22.1816 98.5713 22.8872C98.5713 23.5928 99.1542 24.164 99.8372 24.164ZM98.7879 33.32H100.903V25.2056H98.7879V33.32Z" fill="white"/>
<path d="M108.431 33.3199H110.546V27.5911C110.546 26.0119 109.696 25.0039 107.931 25.0039C106.615 25.0039 105.632 25.6423 105.116 26.2639V25.2055H103.001V33.3199H105.116V27.8599C105.466 27.3727 106.116 26.9023 106.948 26.9023C107.848 26.9023 108.431 27.2887 108.431 28.4143V33.3199Z" fill="white"/>
<path d="M123.969 33.32H126.218L128.666 25.2056H126.467L124.968 30.6656L123.203 25.2056H121.321L119.555 30.6656L118.056 25.2056H115.858L118.306 33.32H120.571L122.27 27.7928L123.969 33.32Z" fill="white"/>
<path d="M130.757 24.164C131.456 24.164 132.023 23.5928 132.023 22.8872C132.023 22.1816 131.456 21.6104 130.757 21.6104C130.074 21.6104 129.491 22.1816 129.491 22.8872C129.491 23.5928 130.074 24.164 130.757 24.164ZM129.708 33.32H131.823V25.2056H129.708V33.32Z" fill="white"/>
<path d="M136.619 33.5216C137.502 33.5216 138.068 33.2864 138.385 33.0008L137.935 31.388C137.818 31.5056 137.519 31.6232 137.202 31.6232C136.736 31.6232 136.469 31.2368 136.469 30.7328V27.0704H138.101V25.2056H136.469V22.988H134.337V25.2056H133.005V27.0704H134.337V31.304C134.337 32.7488 135.137 33.5216 136.619 33.5216Z" fill="white"/>
<path d="M144.995 33.3201H147.111V27.5577C147.111 25.9785 146.261 25.0041 144.495 25.0041C143.18 25.0041 142.181 25.6425 141.664 26.2641V22.1145H139.549V33.3201H141.664V27.8601C142.031 27.3729 142.68 26.9025 143.496 26.9025C144.413 26.9025 144.995 27.2553 144.995 28.3809V33.3201Z" fill="white"/>
<mask id="mask2_3405_144" style="mask-type:luminance" maskUnits="userSpaceOnUse" x="157" y="18" width="133" height="20">
<path d="M289.806 18.2H157.395V37.52H289.806V18.2Z" fill="white"/>
</mask>
<g mask="url(#mask2_3405_144)">
<path d="M170.449 28.3681L174.164 32.1644C174.967 32.9778 175.369 33.6784 175.369 34.266C175.369 34.8309 174.967 35.5201 174.164 36.3336C173.36 37.1245 172.679 37.52 172.122 37.52C171.564 37.52 170.883 37.1132 170.08 36.2998L166.399 32.5373L162.684 36.2998C161.879 37.1132 161.199 37.52 160.641 37.52C160.106 37.52 159.425 37.1245 158.6 36.3336C157.796 35.5201 157.395 34.8309 157.395 34.266C157.395 33.6784 157.796 32.9778 158.6 32.1644L162.315 28.3681L158.6 24.5718C157.796 23.7583 157.395 23.0691 157.395 22.5042C157.395 21.9166 157.796 21.216 158.6 20.4026C159.425 19.5891 160.106 19.1824 160.641 19.1824C161.199 19.1824 161.879 19.5891 162.684 20.4026L166.399 24.1989L170.08 20.4026C170.883 19.5891 171.564 19.1824 172.122 19.1824C172.679 19.1824 173.36 19.5891 174.164 20.4026C174.967 21.216 175.369 21.9166 175.369 22.5042C175.369 23.0691 174.967 23.7583 174.164 24.5718L170.449 28.3681Z" fill="white"/>
<path d="M188.016 21.3515C188.149 20.086 189.031 19.4534 190.66 19.4534C191.53 19.4534 192.177 19.5211 192.601 19.6568C193.025 19.7923 193.316 20.0296 193.471 20.3685C193.649 20.7075 193.75 21.0125 193.773 21.2837C193.817 21.5322 193.84 21.9164 193.84 22.4362V34.2997C193.84 34.8195 193.817 35.2148 193.773 35.486C193.75 35.7347 193.661 36.0284 193.505 36.3673C193.193 36.9549 192.422 37.2486 191.195 37.2486C189.99 37.2486 189.176 37.1018 188.752 36.808C188.351 36.4916 188.116 36.0397 188.048 35.4521C187.223 36.6498 185.841 37.2486 183.899 37.2486C181.98 37.2486 180.195 36.3561 178.543 34.5708C176.892 32.7857 176.066 30.718 176.066 28.3679C176.066 25.9953 176.892 23.9276 178.543 22.165C180.217 20.3799 182.047 19.4872 184.032 19.4872C184.791 19.4872 185.483 19.6228 186.108 19.8939C186.733 20.1651 187.167 20.425 187.414 20.6736C187.659 20.8996 187.859 21.1255 188.016 21.3515ZM181.924 28.4019C181.924 29.1475 182.214 29.8254 182.794 30.4355C183.374 31.0231 184.077 31.3168 184.903 31.3168C185.729 31.3168 186.409 31.0118 186.945 30.4016C187.502 29.7915 187.781 29.125 187.781 28.4019C187.781 27.6561 187.513 26.9669 186.978 26.3342C186.465 25.7014 185.762 25.3852 184.87 25.3852C183.998 25.3852 183.285 25.7014 182.728 26.3342C182.191 26.9669 181.924 27.6561 181.924 28.4019Z" fill="white"/>
<path d="M202.265 21.8263C203.313 20.2219 204.574 19.4197 206.048 19.4197C208.323 19.4197 210.019 20.4026 211.134 22.3686C211.38 22.0297 211.669 21.6794 212.004 21.3178C212.362 20.9338 212.919 20.5269 213.678 20.0976C214.438 19.6456 215.218 19.4197 216.021 19.4197C217.807 19.4197 219.302 20.1202 220.507 21.5212C221.711 22.8997 222.314 25.1933 222.314 28.4021V34.3339C222.314 34.8536 222.291 35.2491 222.246 35.5202C222.224 35.7687 222.125 36.0625 221.945 36.4015C221.655 37.0117 220.797 37.3167 219.369 37.3167C217.962 37.3167 217.104 37.0003 216.791 36.3675C216.636 36.0286 216.535 35.7349 216.49 35.4864C216.468 35.2152 216.456 34.8197 216.456 34.3V28.3682C216.456 26.4022 215.764 25.4192 214.382 25.4192C213.6 25.4192 213.065 25.6791 212.775 26.1989C212.507 26.7186 212.373 27.453 212.373 28.4021V34.3339C212.373 34.8762 212.35 35.2716 212.306 35.5202C212.284 35.7687 212.184 36.0625 212.004 36.4015C211.692 37.0117 210.822 37.3167 209.394 37.3167C207.988 37.3167 207.129 37.0003 206.817 36.3675C206.66 36.0286 206.56 35.7349 206.516 35.4864C206.493 35.2152 206.482 34.8197 206.482 34.3V28.3682C206.482 26.4022 205.79 25.4192 204.407 25.4192C203.068 25.4192 202.398 26.4022 202.398 28.3682V34.3678C202.398 34.8874 202.376 35.2829 202.331 35.5541C202.309 35.8026 202.209 36.0965 202.03 36.4354C201.695 37.023 200.825 37.3167 199.42 37.3167C198.013 37.3167 197.155 37.0117 196.842 36.4015C196.687 36.0625 196.586 35.7687 196.541 35.5202C196.519 35.2716 196.507 34.8762 196.507 34.3339V22.4025C196.507 21.8828 196.519 21.4987 196.541 21.25C196.586 20.9789 196.698 20.6851 196.876 20.3687C197.211 19.7586 198.002 19.4536 199.252 19.4536C200.501 19.4536 201.317 19.657 201.695 20.0637C202.075 20.4705 202.265 21.058 202.265 21.8263Z" fill="white"/>
<path d="M236.425 21.3515C236.559 20.086 237.441 19.4534 239.069 19.4534C239.94 19.4534 240.588 19.5211 241.011 19.6568C241.435 19.7923 241.725 20.0296 241.881 20.3685C242.06 20.7075 242.159 21.0125 242.182 21.2837C242.227 21.5322 242.249 21.9164 242.249 22.4362V34.2997C242.249 34.8195 242.227 35.2148 242.182 35.486C242.159 35.7347 242.071 36.0284 241.914 36.3673C241.602 36.9549 240.833 37.2486 239.606 37.2486C238.401 37.2486 237.585 37.1018 237.161 36.808C236.76 36.4916 236.526 36.0397 236.459 35.4521C235.633 36.6498 234.25 37.2486 232.308 37.2486C230.389 37.2486 228.604 36.3561 226.952 34.5708C225.302 32.7857 224.476 30.718 224.476 28.3679C224.476 25.9953 225.302 23.9276 226.952 22.165C228.627 20.3799 230.456 19.4872 232.443 19.4872C233.201 19.4872 233.893 19.6228 234.517 19.8939C235.142 20.1651 235.578 20.425 235.823 20.6736C236.068 20.8996 236.27 21.1255 236.425 21.3515ZM230.333 28.4019C230.333 29.1475 230.623 29.8254 231.204 30.4355C231.784 31.0231 232.487 31.3168 233.313 31.3168C234.138 31.3168 234.819 31.0118 235.354 30.4016C235.911 29.7915 236.192 29.125 236.192 28.4019C236.192 27.6561 235.923 26.9669 235.387 26.3342C234.875 25.7014 234.171 25.3852 233.279 25.3852C232.409 25.3852 231.695 25.7014 231.137 26.3342C230.602 26.9669 230.333 27.6561 230.333 28.4019Z" fill="white"/>
<path d="M254.724 19.4534C256.956 19.4534 258.808 20.3233 260.28 22.0634C261.775 23.7808 262.523 25.8823 262.523 28.3679V34.3337C262.523 34.8534 262.5 35.2487 262.456 35.5199C262.433 35.7686 262.345 36.0511 262.188 36.3673C261.876 36.9775 261.006 37.2825 259.577 37.2825C257.992 37.2825 257.079 36.8645 256.832 36.0284C256.698 35.6442 256.632 35.068 256.632 34.2997V28.334C256.632 27.4076 256.364 26.6845 255.828 26.1647C255.315 25.645 254.612 25.3852 253.719 25.3852C252.849 25.3852 252.135 25.6563 251.577 26.1986C251.042 26.7409 250.775 27.4528 250.775 28.334V34.3337C250.775 34.8534 250.752 35.2487 250.707 35.5199C250.685 35.7686 250.584 36.0511 250.406 36.3673C250.116 36.9775 249.256 37.2825 247.829 37.2825C246.423 37.2825 245.565 36.9775 245.251 36.3673C245.095 36.0284 244.994 35.7347 244.95 35.486C244.927 35.2148 244.916 34.8195 244.916 34.2997V22.3005C244.916 21.8034 244.927 21.4306 244.95 21.1821C244.994 20.9109 245.107 20.617 245.284 20.3008C245.597 19.7357 246.457 19.4534 247.862 19.4534C249.224 19.4534 250.06 19.7132 250.373 20.2329C250.595 20.617 250.707 21.0803 250.707 21.6227C250.797 21.4645 250.997 21.2385 251.31 20.9448C251.622 20.6511 251.923 20.4138 252.213 20.2329C252.973 19.7132 253.809 19.4534 254.724 19.4534Z" fill="white"/>
<path fill-rule="evenodd" clip-rule="evenodd" d="M288.406 19.0319C289.714 20.221 289.81 22.2459 288.622 23.5548L277.794 35.4888C277.198 36.1471 276.354 36.5269 275.466 36.5374C274.578 36.5478 273.725 36.1878 273.113 35.5438L267.299 29.4314C266.081 28.1508 266.13 26.1242 267.409 24.9047C268.687 23.6851 270.711 23.7345 271.93 25.015L275.372 28.6351L283.89 19.2487C285.076 17.9399 287.099 17.8429 288.406 19.0319Z" fill="white"/>
</g>
<path d="M7.39697 20.832C7.39697 13.4094 13.4182 7.39209 20.8458 7.39209H35.1912C42.6189 7.39209 48.6401 13.4094 48.6401 20.832V35.168C48.6401 42.5908 42.6189 48.608 35.1912 48.608H20.8458C13.4182 48.608 7.39697 42.5908 7.39697 35.168V20.832Z" fill="black"/>
<path fill-rule="evenodd" clip-rule="evenodd" d="M20.8455 5.6001H35.191C43.609 5.6001 50.433 12.4197 50.433 20.8321V35.1681C50.433 43.5806 43.609 50.4001 35.191 50.4001H20.8455C12.4276 50.4001 5.60352 43.5806 5.60352 35.1681V20.8321C5.60352 12.4197 12.4276 5.6001 20.8455 5.6001ZM20.8455 7.3921C13.418 7.3921 7.3967 13.4094 7.3967 20.8321V35.1681C7.3967 42.5908 13.418 48.6081 20.8455 48.6081H35.191C42.6185 48.6081 48.6398 42.5908 48.6398 35.1681V20.8321C48.6398 13.4094 42.6185 7.3921 35.191 7.3921H20.8455Z" fill="black"/>
<path d="M24.6193 28.1749L26.7141 30.3323C27.167 30.7947 27.3934 31.1927 27.3934 31.5266C27.3934 31.8478 27.167 32.2394 26.7141 32.7018C26.261 33.1512 25.8773 33.3759 25.5628 33.3759C25.2483 33.3759 24.8646 33.1448 24.4117 32.6825L22.3358 30.5443L20.241 32.6825C19.7881 33.1448 19.4044 33.3759 19.0899 33.3759C18.788 33.3759 18.4041 33.1512 17.9387 32.7018C17.4858 32.2394 17.2593 31.8478 17.2593 31.5266C17.2593 31.1927 17.4858 30.7947 17.9387 30.3323L20.0334 28.1749L17.9387 26.0175C17.4858 25.5551 17.2593 25.1634 17.2593 24.8423C17.2593 24.5084 17.4858 24.1104 17.9387 23.648C18.4041 23.1857 18.788 22.9546 19.0899 22.9546C19.4044 22.9546 19.7881 23.1857 20.241 23.648L22.3358 25.8055L24.4117 23.648C24.8646 23.1857 25.2483 22.9546 25.5628 22.9546C25.8773 22.9546 26.261 23.1857 26.7141 23.648C27.167 24.1104 27.3934 24.5084 27.3934 24.8423C27.3934 25.1634 27.167 25.5551 26.7141 26.0175L24.6193 28.1749Z" fill="white"/>
<path fill-rule="evenodd" clip-rule="evenodd" d="M40.2035 23.103C40.9415 23.7874 40.9964 24.9531 40.3256 25.7064L34.2114 32.5759C33.8744 32.9548 33.3978 33.1734 32.8964 33.1795C32.3949 33.1855 31.9135 32.9783 31.5676 32.6076L28.2847 29.0891C27.597 28.352 27.6249 27.1854 28.347 26.4834C29.0691 25.7814 30.2119 25.8099 30.8997 26.547L32.8439 28.6307L37.6531 23.2277C38.3234 22.4744 39.4655 22.4185 40.2035 23.103Z" fill="white"/>
<path fill-rule="evenodd" clip-rule="evenodd" d="M20.3972 11.8718C15.5129 11.8718 11.8796 15.5027 11.8796 20.3839C11.8796 20.8787 11.4782 21.2799 10.983 21.2799C10.4878 21.2799 10.0864 20.8787 10.0864 20.3839C10.0864 14.513 14.5224 10.0798 20.3972 10.0798C20.8924 10.0798 21.2938 10.481 21.2938 10.9758C21.2938 11.4707 20.8924 11.8718 20.3972 11.8718Z" fill="#515464"/>
<path fill-rule="evenodd" clip-rule="evenodd" d="M20.3972 44.128C15.5129 44.128 11.8796 40.4972 11.8796 35.616C11.8796 35.1212 11.4782 34.72 10.983 34.72C10.4878 34.72 10.0864 35.1212 10.0864 35.616C10.0864 41.4869 14.5224 45.92 20.3972 45.92C20.8924 45.92 21.2938 45.5189 21.2938 45.024C21.2938 44.5292 20.8924 44.128 20.3972 44.128Z" fill="#515464"/>
<path fill-rule="evenodd" clip-rule="evenodd" d="M35.6393 11.8718C40.5237 11.8718 44.1569 15.5027 44.1569 20.3839C44.1569 20.8787 44.5584 21.2799 45.0535 21.2799C45.5487 21.2799 45.95 20.8787 45.95 20.3839C45.95 14.513 41.514 10.0798 35.6393 10.0798C35.1442 10.0798 34.7427 10.481 34.7427 10.9758C34.7427 11.4707 35.1442 11.8718 35.6393 11.8718Z" fill="#515464"/>
<path fill-rule="evenodd" clip-rule="evenodd" d="M35.6393 44.128C40.5237 44.128 44.1569 40.4972 44.1569 35.616C44.1569 35.1212 44.5584 34.72 45.0535 34.72C45.5487 34.72 45.95 35.1212 45.95 35.616C45.95 41.4869 41.514 45.92 35.6393 45.92C35.1442 45.92 34.7427 45.5189 34.7427 45.024C34.7427 44.5292 35.1442 44.128 35.6393 44.128Z" fill="#515464"/>
</g>
</g>
<defs>
<linearGradient id="paint0_linear_3405_144" x1="58.8174" y1="-89.5474" x2="8.54035" y2="226.296" gradientUnits="userSpaceOnUse">
<stop offset="0.45" stop-color="#2247FF"/>
<stop offset="1" stop-color="#0D1C65"/>
</linearGradient>
<linearGradient id="paint1_linear_3405_144" x1="54.6825" y1="-63.2183" x2="12.7848" y2="199.985" gradientUnits="userSpaceOnUse">
<stop offset="0.45" stop-color="#2247FF"/>
<stop offset="1" stop-color="#0D1C65"/>
</linearGradient>
<linearGradient id="paint2_linear_3405_144" x1="50.5485" y1="-36.8892" x2="17.0303" y2="173.673" gradientUnits="userSpaceOnUse">
<stop offset="0.45" stop-color="#2247FF"/>
<stop offset="1" stop-color="#0D1C65"/>
</linearGradient>
<linearGradient id="paint3_linear_3405_144" x1="46.4141" y1="-10.56" x2="21.2756" y2="147.362" gradientUnits="userSpaceOnUse">
<stop offset="0.45" stop-color="#2247FF"/>
<stop offset="1" stop-color="#0D1C65"/>
</linearGradient>
<linearGradient id="paint4_linear_3405_144" x1="42.2803" y1="15.7692" x2="25.5213" y2="121.05" gradientUnits="userSpaceOnUse">
<stop offset="0.45" stop-color="#2247FF"/>
<stop offset="1" stop-color="#0D1C65"/>
</linearGradient>
<linearGradient id="paint5_linear_3405_144" x1="38.1451" y1="42.0982" x2="29.7656" y2="94.739" gradientUnits="userSpaceOnUse">
<stop offset="0.45" stop-color="#2247FF"/>
<stop offset="1" stop-color="#0D1C65"/>
</linearGradient>
<clipPath id="clip0_3405_144">
<rect width="304" height="56" fill="white"/>
</clipPath>
</defs>
</svg>
